<svg width="24" height="24" viewBox="0 0 24 24" fill="none" xmlns="http://www.w3.org/2000/svg">
<path d="M17 18C15.79 15.5433 13.9958 14 12 14C10.0042 14 8.21001 15.5591 7 18" stroke="#1B2F05" stroke-width="1.5" stroke-linecap="round" stroke-linejoin="round"/>
<path d="M11.9997 11.9999C13.4191 11.9999 14.5697 10.8492 14.5697 9.42987C14.5697 8.0105 13.4191 6.85986 11.9997 6.85986C10.5803 6.85986 9.42969 8.0105 9.42969 9.42987C9.42969 10.8492 10.5803 11.9999 11.9997 11.9999Z" stroke="#1B2F05" stroke-width="1.5" stroke-linecap="round" stroke-linejoin="round"/>
<path d="M20 11.75C20 16.3063 16.3063 20 11.75 20C7.19365 20 3.5 16.3063 3.5 11.75C3.5 7.19365 7.19365 3.5 11.75 3.5C16.3063 3.5 20 7.19365 20 11.75Z" stroke="#1B2F05" stroke-width="1.5" stroke-linecap="round" stroke-linejoin="round"/>
</svg>
